<svg width="22" height="18" viewBox="0 0 22 18" fill="none" xmlns="http://www.w3.org/2000/svg">
<path d="M15.5458 6.95411C14.5307 6.95411 13.7049 7.77992 13.7049 8.79502C13.7049 9.81013 14.5307 10.6359 15.5458 10.6359H21.2731V6.95415H15.5458V6.95411ZM16.364 9.40865H15.5458C15.2069 9.40865 14.9322 9.13389 14.9322 8.79502C14.9322 8.45616 15.2069 8.1814 15.5458 8.1814H16.364C16.7029 8.1814 16.9776 8.45616 16.9776 8.79502C16.9776 9.13389 16.7029 9.40865 16.364 9.40865Z" fill="#FA907E"/>
<path d="M15.5455 5.72727H21.2727V3.06818C21.2727 1.37637 19.8964 0 18.2046 0H3.06818C1.37637 0 0 1.37637 0 3.06818V14.5227C0 16.2145 1.37637 17.5909 3.06818 17.5909H18.2046C19.8964 17.5909 21.2727 16.2145 21.2727 14.5227V11.8636H15.5455C13.8537 11.8636 12.4773 10.4872 12.4773 8.79544C12.4773 7.10364 13.8537 5.72727 15.5455 5.72727Z" fill="#FA907E"/>
</svg>
