<svg width="22" height="22" viewBox="0 0 22 22" fill="none" xmlns="http://www.w3.org/2000/svg">
<path d="M20.7013 9.76189C20.7008 9.7614 20.7003 9.76091 20.6998 9.76043L12.0214 1.08316C11.6515 0.713124 11.1596 0.509277 10.6365 0.509277C10.1134 0.509277 9.62154 0.712961 9.25147 1.083L0.577537 9.75588C0.574616 9.7588 0.571694 9.76189 0.568772 9.76481C-0.19086 10.5287 -0.189562 11.7682 0.572505 12.5302C0.92067 12.8785 1.38051 13.0802 1.87216 13.1013C1.89212 13.1033 1.91225 13.1043 1.93254 13.1043H2.27843V19.4902C2.27843 20.7538 3.30669 21.782 4.5708 21.782H7.9661C8.3102 21.782 8.58939 21.503 8.58939 21.1588V16.1522C8.58939 15.5756 9.05847 15.1065 9.63518 15.1065H11.6378C12.2145 15.1065 12.6836 15.5756 12.6836 16.1522V21.1588C12.6836 21.503 12.9626 21.782 13.3069 21.782H16.7022C17.9663 21.782 18.9946 20.7538 18.9946 19.4902V13.1043H19.3153C19.8383 13.1043 20.3301 12.9006 20.7003 12.5305C21.4632 11.7672 21.4635 10.5257 20.7013 9.76189Z" fill="#FA907E"/>
</svg>
