<svg width="22" height="22" viewBox="0 0 22 22" fill="none" xmlns="http://www.w3.org/2000/svg">
<path d="M13.5139 11.5224C13.0237 11.5224 12.6276 11.9195 12.6276 12.4087V15.9541C12.6276 16.4425 12.2305 16.8404 11.7411 16.8404H9.08211V3.54531C9.08211 2.78837 8.59993 2.11209 7.87497 1.86038L7.61254 1.77257H11.7411C12.2305 1.77257 12.6276 2.17052 12.6276 2.65902V5.31805C12.6276 5.8072 13.0237 6.20434 13.5139 6.20434C14.004 6.20434 14.4002 5.8072 14.4002 5.31805V2.65902C14.4002 1.19302 13.2071 0 11.7411 0H2.21302C2.17926 0 2.15102 0.0150934 2.11824 0.0194753C2.07556 0.0159048 2.03482 0 1.99149 0C1.01383 0 0.21875 0.794916 0.21875 1.77257V17.7267C0.21875 18.4837 0.700925 19.1599 1.42589 19.4117L6.76001 21.1898C6.9408 21.2456 7.12063 21.2722 7.30954 21.2722C8.28719 21.2722 9.08211 20.4771 9.08211 19.4995V18.6132H11.7411C13.2071 18.6132 14.4002 17.4201 14.4002 15.9541V12.4087C14.4002 11.9195 14.004 11.5224 13.5139 11.5224Z" fill="#FA907E"/>
<path d="M21.2315 8.23704L17.6861 4.69173C17.4327 4.43823 17.0515 4.36195 16.7201 4.49925C16.3895 4.63671 16.1732 4.96017 16.1732 5.31835V7.97737H12.6278C12.1385 7.97737 11.7414 8.37434 11.7414 8.86366C11.7414 9.35298 12.1385 9.74995 12.6278 9.74995H16.1732V12.409C16.1732 12.7672 16.3895 13.0906 16.7201 13.2281C17.0515 13.3654 17.4327 13.2891 17.6861 13.0358L21.2315 9.49028C21.578 9.14378 21.578 8.58354 21.2315 8.23704Z" fill="#FA907E"/>
</svg>
