<svg width="21" height="22" viewBox="0 0 21 22" fill="none" xmlns="http://www.w3.org/2000/svg">
<path d="M20.2651 13.2842L18.0458 11.5434C18.0879 11.2069 18.1194 10.865 18.1194 10.5179C18.1194 10.1708 18.0879 9.82903 18.0458 9.49244L20.2704 7.7517C20.4702 7.59393 20.5281 7.30995 20.3966 7.07857L18.293 3.4341C18.1615 3.20794 17.888 3.11328 17.6514 3.20794L15.0324 4.265C14.4907 3.84952 13.8965 3.4972 13.2549 3.229L12.8605 0.441754C12.8131 0.194599 12.5975 0 12.3346 0H8.12739C7.86446 0 7.64881 0.194599 7.60675 0.441754L7.21233 3.229C6.57075 3.4972 5.97645 3.8443 5.43481 4.265L2.81584 3.20794C2.57918 3.11856 2.3057 3.20794 2.17426 3.4341L0.0706022 7.07857C-0.0608887 7.30472 -0.00300701 7.58871 0.196818 7.7517L2.41609 9.49244C2.37403 9.82903 2.34248 10.1708 2.34248 10.5179C2.34248 10.865 2.37403 11.2069 2.41609 11.5434L0.196818 13.2842C-0.00300701 13.4419 -0.0608887 13.7259 0.0706022 13.9573L2.17421 17.6018C2.3057 17.8279 2.57914 17.9226 2.81579 17.8279L5.43476 16.7709C5.97645 17.1864 6.5707 17.5387 7.21228 17.8069L7.6067 20.5941C7.64876 20.8413 7.86441 21.0359 8.12734 21.0359H12.3345C12.5974 21.0359 12.8131 20.8413 12.8551 20.5941L13.2496 17.8069C13.8911 17.5387 14.4854 17.1916 15.0271 16.7709L17.6461 17.8279C17.8827 17.9173 18.1562 17.8279 18.2876 17.6018L20.3912 13.9573C20.5228 13.7312 20.4649 13.4472 20.2651 13.2842ZM10.2309 14.1992C8.19572 14.1992 6.54965 12.5532 6.54965 10.5179C6.54965 8.48272 8.19572 6.83669 10.2309 6.83669C12.2662 6.83669 13.9122 8.48277 13.9122 10.518C13.9122 12.5532 12.2662 14.1992 10.2309 14.1992Z" fill="#FA907E"/>
</svg>
