<svg width="21" height="20" viewBox="0 0 21 20" fill="none" xmlns="http://www.w3.org/2000/svg">
<path d="M17.4324 0.814453H2.94612C1.43151 0.814453 0.199219 2.0465 0.199219 3.56135V12.4267C0.199219 13.9381 1.42615 15.1682 2.93636 15.1736V19.1965L8.71784 15.1736H17.4324C18.947 15.1736 20.1793 13.9413 20.1793 12.4267V3.56135C20.1793 2.0465 18.947 0.814453 17.4324 0.814453ZM19.0086 12.4267C19.0086 13.2957 18.3016 14.0029 17.4324 14.0029H8.35053L4.10707 16.9557V14.0029H2.94612C2.07699 14.0029 1.36993 13.2957 1.36993 12.4267V3.56135C1.36993 2.6921 2.07699 1.98516 2.94612 1.98516H17.4324C18.3016 1.98516 19.0086 2.6921 19.0086 3.56135V12.4267Z" fill="#FA907E"/>
<path d="M5.54764 4.95084H14.8326V6.12154H5.54764V4.95084Z" fill="#FA907E"/>
<path d="M5.54764 7.44846H14.8326V8.61916H5.54764V7.44846Z" fill="#FA907E"/>
<path d="M5.54764 9.94608H14.8326V11.1168H5.54764V9.94608Z" fill="#FA907E"/>
</svg>
