<svg width="20" height="22" viewBox="0 0 20 22" fill="none" xmlns="http://www.w3.org/2000/svg">
<path d="M8.90229 21.3641C7.06242 21.3641 5.56418 19.8668 5.56418 18.026C5.56418 17.6574 5.86327 17.3583 6.2318 17.3583C6.60033 17.3583 6.89942 17.6574 6.89942 18.026C6.89942 19.1307 7.7985 20.0288 8.90229 20.0288C10.0061 20.0288 10.9052 19.1307 10.9052 18.026C10.9052 17.6574 11.2042 17.3583 11.5728 17.3583C11.9413 17.3583 12.2404 17.6574 12.2404 18.026C12.2404 19.8668 10.7423 21.3641 8.90229 21.3641Z" fill="#FA907E"/>
<path d="M16.2454 18.6934H1.55773C0.698754 18.6934 0 17.9946 0 17.1356C0 16.6797 0.198526 16.2481 0.544725 15.9517C0.567055 15.9321 0.591015 15.9143 0.615953 15.8982C1.92267 14.7579 2.67049 13.1174 2.67049 11.3851V8.90153C2.67049 5.46562 5.46648 2.67044 8.90157 2.67044C9.04403 2.67044 9.19806 2.67305 9.34052 2.69717C9.70448 2.75764 9.95028 3.10221 9.88964 3.46536C9.82917 3.82851 9.47841 4.07431 9.12145 4.01367C9.05022 4.0021 8.97199 4.00568 8.90157 4.00568C6.20272 4.00568 4.00573 6.2017 4.00573 8.90153V11.3851C4.00573 13.5358 3.06298 15.5707 1.42163 16.9673C1.40827 16.978 1.39669 16.9878 1.38235 16.9976C1.35839 17.0279 1.33524 17.0742 1.33524 17.1356C1.33524 17.2566 1.43679 17.3581 1.55773 17.3581H16.2454C16.3665 17.3581 16.4681 17.2566 16.4681 17.1356C16.4681 17.0732 16.4449 17.0279 16.42 16.9976C16.4066 16.9878 16.395 16.978 16.3817 16.9673C14.7394 15.5698 13.7976 13.5358 13.7976 11.3851V10.4149C13.7976 10.0464 14.0967 9.7473 14.4652 9.7473C14.8337 9.7473 15.1328 10.0464 15.1328 10.4149V11.3851C15.1328 13.1183 15.8815 14.7597 17.19 15.901C17.2139 15.9169 17.2371 15.9339 17.2584 15.9526C17.6048 16.2481 17.8033 16.6797 17.8033 17.1356C17.8033 17.9946 17.1046 18.6934 16.2454 18.6934Z" fill="#FA907E"/>
<path d="M15.1326 8.90157C12.6784 8.90157 10.6817 6.90506 10.6817 4.45087C10.6817 1.99667 12.6784 0 15.1326 0C17.5868 0 19.5833 1.99667 19.5833 4.45087C19.5833 6.90506 17.5868 8.90157 15.1326 8.90157ZM15.1326 1.33524C13.4145 1.33524 12.017 2.73275 12.017 4.45087C12.017 6.16882 13.4145 7.56633 15.1326 7.56633C16.8506 7.56633 18.2481 6.16882 18.2481 4.45087C18.2481 2.73275 16.8506 1.33524 15.1326 1.33524Z" fill="#FA907E"/>
</svg>
