<svg width="30" height="33" viewBox="0 0 30 33" fill="none" xmlns="http://www.w3.org/2000/svg">
<path d="M19.2193 0.745699C17.774 0.263914 16.2262 -0.131151 14.6978 0.0410879C12.273 0.319454 9.96481 1.23358 8.00695 2.69091C4.16592 5.55513 3.17825 10.7343 1.57391 15.0138C0.971675 16.6193 0.369443 18.2405 0.108075 19.9364C-0.653147 24.9675 2.7061 26.7814 7.06024 28.0172C12.5466 29.5746 18.5508 29.1096 23.8999 27.2307C28.4564 25.6299 30.2835 21.7708 29.32 17.1613C28.8382 14.8873 27.93 12.7289 27.0146 10.591C25.273 6.53436 23.6264 2.23321 19.2193 0.745699Z" fill="#00214E"/>
<path d="M29.9741 27.9762C26.0599 30.9895 21.2537 32.6134 16.3141 32.5916C11.3745 32.5698 6.58277 30.9035 2.69537 27.8558L8.5563 25.1084C8.7357 25.0235 8.91058 24.9295 9.08024 24.8265L9.21514 24.7422C9.26332 24.7121 9.31029 24.6808 9.35727 24.6483C10.0974 24.1365 10.7035 23.454 11.1242 22.6585C11.606 21.7491 11.765 20.7458 11.7722 19.722C11.7722 19.0319 11.7349 18.3441 11.7277 17.6527C11.7228 17.2713 11.7188 16.8895 11.7156 16.5073L11.9565 16.6277L12.5828 16.9517L16.2311 17.572L19.9794 18.2104L20.0927 22.0647L20.1457 23.9834L21.5272 24.5459L22.6112 24.9843L29.9741 27.9762Z" fill="#E18477"/>
<path d="M20.0868 21.6661C19.7592 21.8684 19.4496 21.9636 19.1786 21.9347C17.3972 21.7432 13.9223 20.3472 11.735 17.7636C11.735 17.6367 11.7326 17.5103 11.7278 17.3842C11.723 17.002 11.719 16.6202 11.7158 16.2387L11.9567 16.3592L12.583 16.6832L16.2313 17.3035L19.9796 17.9419L20.0868 21.6661Z" fill="#A76962"/>
<path d="M29.9741 27.9761C26.0599 30.9894 21.2537 32.6133 16.3141 32.5915C11.3745 32.5697 6.58277 30.9034 2.69537 27.8557L8.5563 25.1083C8.73697 25.0232 8.91162 24.9296 9.08024 24.8276C11.9324 26.9246 15.9023 28.2893 19.3254 26.7488C20.2962 26.3128 21.1719 25.5443 21.5284 24.5434L22.6124 24.9818L29.9741 27.9761Z" fill="#8EEFDE"/>
<path d="M8.66331 14.7042C9.79417 14.7042 10.7109 13.7875 10.7109 12.6566C10.7109 11.5258 9.79417 10.609 8.66331 10.609C7.53246 10.609 6.61572 11.5258 6.61572 12.6566C6.61572 13.7875 7.53246 14.7042 8.66331 14.7042Z" fill="#E18477"/>
<path d="M9.5059 14.4632C10.6368 14.4632 11.5535 13.5465 11.5535 12.4157C11.5535 11.2848 10.6368 10.3681 9.5059 10.3681C8.37505 10.3681 7.45831 11.2848 7.45831 12.4157C7.45831 13.5465 8.37505 14.4632 9.5059 14.4632Z" fill="#A76962"/>
<path d="M19.1427 20.3808C16.6566 20.8457 10.4705 18.3597 9.05647 13.4599C8.7594 12.4391 8.60139 11.3829 8.58673 10.3199C8.58673 10.1115 8.58673 9.90435 8.59637 9.69959C8.75054 6.28614 10.497 3.43637 13.2564 2.63541C13.4154 2.58964 13.5756 2.55109 13.7382 2.51496C14.7033 2.33517 15.6983 2.40482 16.6289 2.71731C17.829 3.12766 18.9152 3.81561 19.7991 4.72515C20.172 5.09926 20.5152 5.50198 20.8253 5.92962C21.6151 7.02506 22.2078 8.24989 22.5766 9.54903C24.0003 14.456 20.9987 20.0351 19.1427 20.3808Z" fill="#E18477"/>
<path d="M18.618 9.75754C18.6516 10.2258 18.7323 10.6894 18.8589 11.1415C18.9794 11.5401 19.1624 11.7871 19.4033 12.1315C19.4869 12.2446 19.5592 12.3656 19.6189 12.4929C19.9381 13.2083 19.5153 14.0021 18.7108 14.0021H18.2181" stroke="#00214E" stroke-miterlimit="10"/>
<path d="M16.4523 13.077C16.3653 13.1215 16.2971 13.1957 16.26 13.2861C16.2229 13.3766 16.2194 13.4773 16.2501 13.5701C16.2808 13.6629 16.3436 13.7417 16.4273 13.7922C16.511 13.8427 16.61 13.8616 16.7064 13.8454" stroke="#00214E" stroke-miterlimit="10"/>
<path d="M19.1879 8.27842C20.0389 7.84504 21.0229 7.75201 21.9401 8.01826" stroke="#00214E" stroke-miterlimit="10"/>
<path d="M12.8678 8.62655C13.4474 8.3314 14.085 8.16759 14.7351 8.14677C15.3853 8.12595 16.032 8.24864 16.6293 8.5061" stroke="#00214E" stroke-miterlimit="10"/>
<path d="M18.2439 2.02476C17.049 1.7923 15.6157 1.83325 14.4438 1.84771C13.8042 1.85493 13.1562 1.89588 12.5468 2.0886C10.8605 2.63181 9.76324 4.25664 9.0791 5.89471C8.90445 6.31266 7.09896 10.4717 7.13871 10.4801C8.29499 10.8559 9.53318 10.3332 10.6184 9.78754C13.8391 8.16512 17.2574 5.55746 18.6426 2.11028C18.5137 2.08137 18.38 2.05126 18.2439 2.02476Z" fill="#00214E"/>
<path d="M15.2075 15.0163C15.224 14.9903 15.2457 14.9679 15.2712 14.9506C15.2967 14.9333 15.3255 14.9215 15.3558 14.9158C15.3861 14.9102 15.4172 14.9108 15.4472 14.9177C15.4773 14.9247 15.5056 14.9377 15.5303 14.9561C15.7808 15.1319 16.2385 15.5053 16.8889 15.6354C17.7754 15.8113 18.5451 15.4571 18.7282 15.6848C18.8317 15.8137 18.7053 15.9714 18.4632 16.1726C18.2096 16.3624 17.9206 16.4996 17.6132 16.5759C17.3058 16.6523 16.9862 16.6662 16.6733 16.617C15.8206 16.4568 15.1798 15.4692 15.1798 15.1199C15.1798 15.0835 15.1893 15.0478 15.2075 15.0163Z" fill="white"/>
<path d="M14.5335 9.9985C15.2682 10.0045 15.2682 11.1271 14.5335 11.1331H14.5009C13.7662 11.1271 13.7662 10.0045 14.5009 9.9985H14.5335Z" fill="#00214E"/>
<path d="M20.5876 9.91891C21.2705 9.91891 21.2705 10.9668 20.5876 10.9716H20.5575C19.8746 10.9716 19.8746 9.92373 20.5575 9.91891H20.5876Z" fill="#00214E"/>
</svg>
