<svg width="64" height="64" viewBox="0 0 64 64" fill="none" xmlns="http://www.w3.org/2000/svg">
<path d="M36.806 49.4211C32.4707 49.0147 28.1707 48.2933 23.9401 47.2625C15.3613 45.1248 7.0654 41.3501 0.522339 35.4052C6.29563 29.3769 9.44196 25.899 13.9702 18.8829C17.3275 13.6847 21.4546 4.54478 27.68 2.18909C37.432 -1.50443 50.6062 2.08475 53.377 13.0563C54.5502 17.6935 54.5942 22.544 53.9288 27.26C53.6297 29.3862 51.478 50.1422 50.2422 50.1237C45.7604 50.0471 41.267 49.864 36.806 49.4211Z" fill="#F2D4CF"/>
<path d="M63.05 54.7426C55.5156 60.5439 46.2635 63.6704 36.7546 63.6284C27.2456 63.5864 18.0215 60.3783 10.5386 54.5107L21.8208 49.222C22.1662 49.0587 22.5028 48.8776 22.8294 48.6795L23.0891 48.5172C23.1819 48.4592 23.2723 48.3989 23.3627 48.3363C24.7861 47.3543 25.9527 46.0447 26.7641 44.5176C27.6915 42.7671 27.9976 40.8334 28.0115 38.8625C28.0115 37.5363 27.9396 36.2101 27.9257 34.8815C27.9164 34.1473 27.9087 33.4123 27.9025 32.6765L28.3662 32.9084L29.5719 33.5321L36.5949 34.7262L43.8104 35.955L44.0283 43.3745L44.1373 47.0541L46.7967 48.1369L48.8834 48.9809L63.05 54.7426Z" fill="#F2A196"/>
<path d="M44.001 41.4941C43.3703 41.8837 42.7745 42.0668 42.2528 42.0112C38.8236 41.6425 32.1344 38.9553 27.9239 33.9819C27.9239 33.7377 27.9192 33.4942 27.91 33.2515C27.9007 32.5158 27.893 31.7808 27.8868 31.0466L28.3505 31.2784L29.5562 31.9021L36.5745 33.0939L43.79 34.3227L44.001 41.4941Z" fill="#E88870"/>
<path d="M22.1095 29.1963C24.2863 29.1963 26.0511 27.4315 26.0511 25.2547C26.0511 23.0778 24.2863 21.313 22.1095 21.313C19.9326 21.313 18.1678 23.0778 18.1678 25.2547C18.1678 27.4315 19.9326 29.1963 22.1095 29.1963Z" fill="#F2A196"/>
<path d="M23.5 28.7327C25.6769 28.7327 27.4416 26.968 27.4416 24.7911C27.4416 22.6142 25.6769 20.8495 23.5 20.8495C21.3231 20.8495 19.5584 22.6142 19.5584 24.7911C19.5584 26.968 21.3231 28.7327 23.5 28.7327Z" fill="#E88870"/>
<path d="M48.9068 19.2844C51.6311 28.7188 45.8462 40.1216 42.2895 40.1216C37.4205 40.1216 25.5956 36.2333 22.8759 26.799C20.1562 17.3646 23.7639 8.03691 30.9516 5.96641C38.1392 3.89591 46.1755 9.85237 48.9068 19.2844Z" fill="#F2A196"/>
<path d="M34.2209 25.7999C36.1622 25.7999 37.7359 24.2262 37.7359 22.2849C37.7359 20.3437 36.1622 18.77 34.2209 18.77C32.2796 18.77 30.7059 20.3437 30.7059 22.2849C30.7059 24.2262 32.2796 25.7999 34.2209 25.7999Z" fill="#00214E"/>
<path d="M46.1284 25.2338C48.0697 25.2338 49.6434 23.6601 49.6434 21.7188C49.6434 19.7776 48.0697 18.2039 46.1284 18.2039C44.1871 18.2039 42.6134 19.7776 42.6134 21.7188C42.6134 23.6601 44.1871 25.2338 46.1284 25.2338Z" fill="#00214E"/>
<path d="M41.6394 6.67327C40.6401 11.0114 38.4629 14.6933 34.4842 17.3736C30.1902 20.3414 25.2562 20.7657 20.3107 21.7464C20.4359 18.7068 20.5031 15.4515 22.0705 12.7387C23.85 9.7297 26.448 7.28844 29.5619 5.69946C32.9957 3.92574 38.3076 2.1868 42.1634 3.41565C42.058 4.51154 41.8829 5.59961 41.6394 6.67327Z" fill="#F2D4CF"/>
<path d="M40.3292 19.7249C40.3107 19.806 42.1656 27.2255 42.1656 27.2255H39.2673" stroke="#00214E" stroke-miterlimit="10"/>
<path d="M42.9857 17.3578C44.6247 16.5257 46.5191 16.3491 48.2837 16.864" stroke="#00214E" stroke-miterlimit="10"/>
<path d="M30.207 18.2152C31.3226 17.6464 32.55 17.3307 33.8016 17.2906C35.0532 17.2506 36.2982 17.4871 37.4479 17.9833" stroke="#00214E" stroke-miterlimit="10"/>
<path d="M37.0612 22.491L42.9828 21.9856" stroke="#00214E" stroke-miterlimit="10"/>
<path d="M63.05 54.7424C55.5156 60.5437 46.2635 63.6702 36.7546 63.6282C27.2456 63.5862 18.0215 60.3781 10.5386 54.5105L21.8208 49.2218C22.3581 48.9692 22.8738 48.673 23.3627 48.3361C23.5111 48.2341 23.6595 48.1274 23.8009 48.0161C25.0288 47.0766 26.0395 45.8832 26.7641 44.5174C27.3118 43.468 27.6757 42.3324 27.8399 41.1601C28.0037 41.3187 28.1755 41.4689 28.3546 41.6099C29.7769 42.6621 31.3206 43.5394 32.9524 44.2229C33.7442 44.5532 34.5539 44.8388 35.3776 45.0785C37.8595 45.8022 40.4507 46.0762 43.029 45.8877C43.3861 45.8599 43.7454 45.8251 44.1025 45.7996L44.1373 46.9774V47.0539L46.9428 48.1947L63.05 54.7424Z" fill="#FF2609"/>
<path d="M34.2981 29.8475C34.3296 29.7968 34.3713 29.7532 34.4205 29.7195C34.4697 29.6858 34.5254 29.6626 34.584 29.6515C34.6426 29.6404 34.7029 29.6416 34.7611 29.6549C34.8192 29.6683 34.874 29.6936 34.9218 29.7292C35.4018 30.0701 36.2828 30.7865 37.5349 31.0369C39.2414 31.3754 40.7229 30.6938 41.0754 31.1343C41.2748 31.3824 41.0313 31.6838 40.5653 32.0733C40.0771 32.4376 39.521 32.7008 38.9298 32.8473C38.3385 32.9938 37.724 33.0208 37.1222 32.9266C35.4783 32.6205 34.2471 30.717 34.2471 30.0446C34.246 29.9755 34.2636 29.9074 34.2981 29.8475Z" fill="white"/>
</svg>
